<?xml version="1.0" encoding="iso-8859-1"?>
<!-- Generator: Adobe Illustrator 19.1.0, SVG Export Plug-In . SVG Version: 6.00 Build 0)  -->
<svg version="1.1" id="Capa_1" xmlns="http://www.w3.org/2000/svg" xmlns:xlink="http://www.w3.org/1999/xlink" x="0px" y="0px"
	 viewBox="0 0 64 64" style="enable-background:new 0 0 64 64;" xml:space="preserve">
<g>
	<g>
		<g>
			<path d="M55.979,24.558C55.48,13.236,46.006,4.5,34,4.5c-10.599,0-19.63,6.68-21.811,16H11c-5.962,0-11,5.495-11,12
				c0,6.271,4.729,11,11,11v-2c-5.131,0-9-3.869-9-9c0-5.42,4.122-10,9-10h2.83l0.153-0.815C15.637,12.886,24.055,6.5,34,6.5
				c11.215,0,20,8.346,20,19v1h1c4.125,0,7,4.216,7,8c0,3.991-3.009,7-7,7v2c5.131,0,9-3.869,9-9
				C64,29.97,60.818,25.139,55.979,24.558z"/>
			<rect x="13" y="41.5" width="40" height="2"/>
			<rect x="13" y="49.5" width="40" height="2"/>
			<rect x="13" y="57.5" width="40" height="2"/>
		</g>
	</g>
	<g>
	</g>
	<g>
	</g>
	<g>
	</g>
	<g>
	</g>
	<g>
	</g>
	<g>
	</g>
	<g>
	</g>
	<g>
	</g>
	<g>
	</g>
	<g>
	</g>
	<g>
	</g>
	<g>
	</g>
	<g>
	</g>
	<g>
	</g>
	<g>
	</g>
</g>
<g>
</g>
<g>
</g>
<g>
</g>
<g>
</g>
<g>
</g>
<g>
</g>
<g>
</g>
<g>
</g>
<g>
</g>
<g>
</g>
<g>
</g>
<g>
</g>
<g>
</g>
<g>
</g>
<g>
</g>
</svg>
